<?xml version="1.0" encoding="iso-8859-1"?>
<!-- Generator: Adobe Illustrator 19.0.0, SVG Export Plug-In . SVG Version: 6.00 Build 0)  -->
<svg version="1.1" id="Capa_1" xmlns="http://www.w3.org/2000/svg" xmlns:xlink="http://www.w3.org/1999/xlink" x="0px" y="0px" width="40px" height="40px"
	 viewBox="0 0 512 512" style="enable-background:new 0 0 512 512;" xml:space="preserve">
<g>
	<g>
		<path d="M256,0C115.39,0,0,115.39,0,256s115.39,256,256,256s256-115.39,256-256S396.61,0,256,0z M434.918,211.352l-82.383,76.831
			l21.489,110.581c1.113,5.713-1.187,11.572-5.903,14.985c-4.746,3.428-11.001,3.809-16.084,0.996l-98.54-54.609l-98.525,54.609
			c-2.271,1.26-4.775,1.875-7.266,1.875c-3.105,0-6.196-0.967-8.818-2.871c-4.717-3.413-7.017-9.272-5.903-14.985l21.489-110.581
			l-82.383-76.831c-4.265-3.985-5.847-10.064-4.045-15.601c1.802-5.552,6.65-9.551,12.437-10.254l111.812-13.74l47.607-102.1
			c4.922-10.547,22.266-10.576,27.188,0l47.622,102.1l111.812,13.74c5.786,0.703,10.635,4.702,12.437,10.254
			C440.763,201.288,439.181,207.367,434.918,211.352z"/>
	</g>
</g>
<g>
</g>
<g>
</g>
<g>
</g>
<g>
</g>
<g>
</g>
<g>
</g>
<g>
</g>
<g>
</g>
<g>
</g>
<g>
</g>
<g>
</g>
<g>
</g>
<g>
</g>
<g>
</g>
<g>
</g>
</svg>
